0
SECTION
2
HEADER
9
$INSUNITS
70
1
9
$ACADVER
1
AC1014
9
$HANDSEED
5
FFFF
0
ENDSEC
0
SECTION
2
TABLES
0
TABLE
2
VPORT
5
8
100
AcDbSymbolTable
0
ENDTAB
0
TABLE
2
LTYPE
5
5
100
AcDbSymbolTable
0
LTYPE
5
14
100
AcDbSymbolTableRecord
100
AcDbLinetypeTableRecord
2
BYBLOCK
70
0
0
LTYPE
5
15
100
AcDbSymbolTableRecord
100
AcDbLinetypeTableRecord
2
BYLAYER
70
0
0
ENDTAB
0
TABLE
2
LAYER
5
2
100
AcDbSymbolTable
70
2
0
LAYER
5
50
100
AcDbSymbolTableRecord
100
AcDbLayerTableRecord
2
0
70
0
6
CONTINUOUS
0
ENDTAB
0
TABLE
2
STYLE
5
3
100
AcDbSymbolTable
70
1
0
STYLE
5
11
100
AcDbSymbolTableRecord
100
AcDbTextStyleTableRecord
2
STANDARD
70
0
0
ENDTAB
0
TABLE
2
VIEW
5
6
100
AcDbSymbolTable
70
0
0
ENDTAB
0
TABLE
2
UCS
5
7
100
AcDbSymbolTable
70
0
0
ENDTAB
0
TABLE
2
APPID
5
9
100
AcDbSymbolTable
70
2
0
APPID
5
12
100
AcDbSymbolTableRecord
100
AcDbRegAppTableRecord
2
ACAD
70
0
0
ENDTAB
0
TABLE
2
DIMSTYLE
5
A
100
AcDbSymbolTable
70
1
0
ENDTAB
0
TABLE
2
BLOCK_RECORD
5
1
100
AcDbSymbolTable
70
1
0
BLOCK_RECORD
5
1F
100
AcDbSymbolTableRecord
100
AcDbBlockTableRecord
2
*MODEL_SPACE
0
BLOCK_RECORD
5
1B
100
AcDbSymbolTableRecord
100
AcDbBlockTableRecord
2
*PAPER_SPACE
0
ENDTAB
0
ENDSEC
0
SECTION
2
BLOCKS
0
BLOCK
5
20
100
AcDbEntity
100
AcDbBlockBegin
2
*MODEL_SPACE
0
ENDBLK
5
21
100
AcDbEntity
100
AcDbBlockEnd
0
BLOCK
5
1C
100
AcDbEntity
100
AcDbBlockBegin
2
*PAPER_SPACE
0
ENDBLK
5
1D
100
AcDbEntity
100
AcDbBlockEnd
0
ENDSEC
0
SECTION
2
ENTITIES
0
CIRCLE
5
100
100
AcDbEntity
8
0
100
AcDbCircle
10
-2.4000000765943148
20
3.0000000957428936
30
0
40
0.055000000000000146
0
CIRCLE
5
101
100
AcDbEntity
8
0
100
AcDbCircle
10
-4.3000001372314811
20
1.1000000351057275
30
0
40
0.13750000000000054
0
CIRCLE
5
102
100
AcDbEntity
8
0
100
AcDbCircle
10
-1.7714360131882581
20
0.63050366221574672
30
0
40
0.059999999999999984
0
CIRCLE
5
103
100
AcDbEntity
8
0
100
AcDbCircle
10
-0.22143601318825787
20
2.3305036622157442
30
0
40
0.059999999999999984
0
CIRCLE
5
104
100
AcDbEntity
8
0
100
AcDbCircle
10
-3.7500000728124352
20
0.37499999999999967
30
0
40
0.060000000000000032
0
CIRCLE
5
105
100
AcDbEntity
8
0
100
AcDbCircle
10
-5.1250000728124343
20
1.9999999999999967
30
0
40
0.060000000000000032
0
CIRCLE
5
106
100
AcDbEntity
8
0
100
AcDbCircle
10
-1.2500000728124327
20
3.6249999999999996
30
0
40
0.060000000000000032
0
CIRCLE
5
107
100
AcDbEntity
8
0
100
AcDbCircle
10
0.12499972734995854
20
1.9999087500000003
30
0
40
0.060000000000000164
0
CIRCLE
5
108
100
AcDbEntity
8
0
100
AcDbCircle
10
-3.7500000728124325
20
3.6249999999999996
30
0
40
0.060000000000000032
0
CIRCLE
5
109
100
AcDbEntity
8
0
100
AcDbCircle
10
-1.2500000728124347
20
0.37500000000000089
30
0
40
0.060000000000000032
0
LWPOLYLINE
5
110
100
AcDbEntity
8
0
100
AcDbPolyline
90
28
70
1
43
0.0
10
0.24999966073742416
20
1.2496350000000016
10
-7.2812434909066282e-08
20
1.2500000000000004
10
-7.2812434909066282e-08
20
0.50000000000000089
10
-0.75000007281243497
20
0.50000000000000089
10
-0.75000007281243508
20
0.25000000000000094
10
-1.7500000728124345
20
0.25000000000000094
10
-1.7500000728124345
20
0.50000000000000089
10
-3.2500000728124347
20
0.50000000000000089
10
-3.2500000728124347
20
0.24999999999999956
10
-4.2500000728124352
20
0.24999999999999956
10
-4.2500000728124352
20
0.49999999999999872
10
-5.0000000728124343
20
0.49999999999999867
10
-5.0000000728124343
20
1.2499999999999982
10
-5.2500000728124343
20
1.2499999999999984
10
-5.2500000728124343
20
2.7499999999999969
10
-5.0000000728124343
20
2.7499999999999969
10
-5.0000000728124343
20
3.4999999999999964
10
-4.2500000728124325
20
3.4999999999999987
10
-4.2500000728124325
20
3.7499999999999978
10
-3.2500000728124325
20
3.7499999999999978
10
-3.2500000728124325
20
3.4999999999999978
10
-1.7500000728124325
20
3.4999999999999991
10
-1.750000072812433
20
3.7499999999999991
10
-0.75000007281243297
20
3.7499999999999991
10
-0.75000007281243219
20
3.4999999999999991
10
-3.3926257860672718e-07
20
3.5000000000000013
10
-3.3926257765483891e-07
20
2.7500000000000013
10
0.24999966073742233
20
2.7500000000000009
0
CIRCLE
5
111
100
AcDbEntity
8
0
100
AcDbCircle
10
-1.8214360131882583
20
2.3805036622157445
30
0
40
0.059999999999999984
0
CIRCLE
5
112
100
AcDbEntity
8
0
100
AcDbCircle
10
-0.17143601318825794
20
0.68050366221574721
30
0
40
0.059999999999999984
0
ENDSEC
0
SECTION
2
OBJECTS
0
DICTIONARY
5
C
100
AcDbDictionary
3
ACAD_GROUP
350
D
3
ACAD_MLINESTYLE
350
17
0
DICTIONARY
5
D
100
AcDbDictionary
0
DICTIONARY
5
1A
330
C
100
AcDbDictionary
0
DICTIONARY
5
17
100
AcDbDictionary
0
ENDSEC
0
EOF
