0
SECTION
2
HEADER
9
$INSUNITS
70
1
9
$ACADVER
1
AC1014
9
$HANDSEED
5
FFFF
0
ENDSEC
0
SECTION
2
TABLES
0
TABLE
2
VPORT
5
8
100
AcDbSymbolTable
0
ENDTAB
0
TABLE
2
LTYPE
5
5
100
AcDbSymbolTable
0
LTYPE
5
14
100
AcDbSymbolTableRecord
100
AcDbLinetypeTableRecord
2
BYBLOCK
70
0
0
LTYPE
5
15
100
AcDbSymbolTableRecord
100
AcDbLinetypeTableRecord
2
BYLAYER
70
0
0
ENDTAB
0
TABLE
2
LAYER
5
2
100
AcDbSymbolTable
70
2
0
LAYER
5
50
100
AcDbSymbolTableRecord
100
AcDbLayerTableRecord
2
0
70
0
6
CONTINUOUS
0
ENDTAB
0
TABLE
2
STYLE
5
3
100
AcDbSymbolTable
70
1
0
STYLE
5
11
100
AcDbSymbolTableRecord
100
AcDbTextStyleTableRecord
2
STANDARD
70
0
0
ENDTAB
0
TABLE
2
VIEW
5
6
100
AcDbSymbolTable
70
0
0
ENDTAB
0
TABLE
2
UCS
5
7
100
AcDbSymbolTable
70
0
0
ENDTAB
0
TABLE
2
APPID
5
9
100
AcDbSymbolTable
70
2
0
APPID
5
12
100
AcDbSymbolTableRecord
100
AcDbRegAppTableRecord
2
ACAD
70
0
0
ENDTAB
0
TABLE
2
DIMSTYLE
5
A
100
AcDbSymbolTable
70
1
0
ENDTAB
0
TABLE
2
BLOCK_RECORD
5
1
100
AcDbSymbolTable
70
1
0
BLOCK_RECORD
5
1F
100
AcDbSymbolTableRecord
100
AcDbBlockTableRecord
2
*MODEL_SPACE
0
BLOCK_RECORD
5
1B
100
AcDbSymbolTableRecord
100
AcDbBlockTableRecord
2
*PAPER_SPACE
0
ENDTAB
0
ENDSEC
0
SECTION
2
BLOCKS
0
BLOCK
5
20
100
AcDbEntity
100
AcDbBlockBegin
2
*MODEL_SPACE
0
ENDBLK
5
21
100
AcDbEntity
100
AcDbBlockEnd
0
BLOCK
5
1C
100
AcDbEntity
100
AcDbBlockBegin
2
*PAPER_SPACE
0
ENDBLK
5
1D
100
AcDbEntity
100
AcDbBlockEnd
0
ENDSEC
0
SECTION
2
ENTITIES
0
LWPOLYLINE
5
100
100
AcDbEntity
8
0
100
AcDbPolyline
90
4
70
1
43
0.0
10
-4.625000292454728
20
-0.87499969057658278
10
-4.6250002925960549
20
-1.1249998674065109
10
-0.37500030285641994
20
-1.1249998674065105
10
-0.3750003029553492
20
-0.87499969057658278
0
LWPOLYLINE
5
101
100
AcDbEntity
8
0
100
AcDbPolyline
90
68
70
1
43
0.0
10
-0.75000033926251142
20
-1.9999997919648136
10
-0.75000032886075862
20
-1.7499997919648136
10
-1.1900003288605567
20
-1.7499997736577255
10
-1.1900003219537916
20
-1.583999773658
10
-1.1000003219537842
20
-1.5839997774025822
10
-1.1000003177931068
20
-1.4839997774025826
10
-1.1750003177930051
20
-1.4839997742819986
10
-1.1750003157126512
20
-1.4339997742818713
10
-1.3250003157127859
20
-1.4339997680408183
10
-1.3250003177931793
20
-1.483999768040742
10
-1.4000003177932876
20
-1.4839997649202874
10
-1.4000003219540094
20
-1.5839997649202624
10
-1.3100003219539518
20
-1.5839997686649057
10
-1.3100003288606941
20
-1.7499997686648814
10
-1.7500003288607573
20
-1.7499997503577949
10
-1.7500003392626775
20
-1.9999998301435487
10
-3.2500003392626766
20
-1.9999997677330179
10
-3.2500003288609798
20
-1.7499997677329659
10
-3.6900003288606853
20
-1.7499997494258774
10
-3.6900003219539204
20
-1.583999749426805
10
-3.6000003219537384
20
-1.5839997531714365
10
-3.6000003177930973
20
-1.4839997531714371
10
-3.6750003177931085
20
-1.4839997500509103
10
-3.6750003157127997
20
-1.4339997500502772
10
-3.8250003157130772
20
-1.4339997438092245
10
-3.8250003177934282
20
-1.4839997438090717
10
-3.9000003177934368
20
-1.4839997406885945
10
-3.9000003219541393
20
-1.5839997406885598
10
-3.810000321954103
20
-1.5839997444331344
10
-3.8100003288608675
20
-1.7499997444330351
10
-4.2500003288609776
20
-1.7499997261259461
10
-4.2500003392627335
20
-1.9999997261259475
10
-5.0000003392625976
20
-1.9999996949206618
10
-5.0000002560485557
20
3.0507933642160345e-07
10
-4.2500002560485548
20
2.7387389119464445e-07
10
-4.250000266450308
20
-0.2499997261261101
10
-3.8100002664502814
20
-0.24999974443320103
10
-3.8100002733570406
20
-0.41599974443333776
10
-3.9000002733570414
20
-0.41599974068871037
10
-3.900000277517742
20
-0.51599974068871024
10
-3.8250002775177392
20
-0.51599974380923885
10
-3.8250002795980924
20
-0.56599974380924034
10
-3.6750002795980761
20
-0.56599975005028513
10
-3.6750002775177482
20
-0.51599975005033782
10
-3.6000002775177551
20
-0.51599975317092184
10
-3.6000002733570176
20
-0.41599975317094051
10
-3.6900002733570108
20
-0.41599974942635204
10
-3.6900002664503142
20
-0.24999974942605102
10
-3.2500002664503089
20
-0.24999976773313623
10
-3.2500002560485317
20
2.3226694408565632e-07
10
-1.7500002560485339
20
1.6985634805938768e-07
10
-1.7500002664503187
20
-0.24999983014357385
10
-1.3100002664502477
20
-0.24999984845066608
10
-1.310000273357014
20
-0.41599984845071258
10
-1.4000002733570143
20
-0.41599984470607976
10
-1.4000002775177147
20
-0.51599984470607985
10
-1.3250002775177139
20
-0.5159998478266058
10
-1.325000279598056
20
-0.56599984782660617
10
-1.1750002795980812
20
-0.5659998540675244
10
-1.1750002775177257
20
-0.51599985406768356
10
-1.1000002775177324
20
-0.51599985718823727
10
-1.1000002733570164
20
-0.41599985718820742
10
-1.1900002733569968
20
-0.41599985344358553
10
-1.1900002664502871
20
-0.24999985344351461
10
-0.75000026645031959
20
-0.24999987175060173
10
-0.75000025604854204
20
1.2824939815298719e-07
10
-2.5604854285717005e-07
20
9.7044133009447909e-08
10
-3.3926257857273982e-07
20
-1.9999998231700784
0
ENDSEC
0
SECTION
2
OBJECTS
0
DICTIONARY
5
C
100
AcDbDictionary
3
ACAD_GROUP
350
D
3
ACAD_MLINESTYLE
350
17
0
DICTIONARY
5
D
100
AcDbDictionary
0
DICTIONARY
5
1A
330
C
100
AcDbDictionary
0
DICTIONARY
5
17
100
AcDbDictionary
0
ENDSEC
0
EOF
