0
SECTION
2
HEADER
9
$INSUNITS
70
1
9
$ACADVER
1
AC1014
9
$HANDSEED
5
FFFF
0
ENDSEC
0
SECTION
2
TABLES
0
TABLE
2
VPORT
5
8
100
AcDbSymbolTable
0
ENDTAB
0
TABLE
2
LTYPE
5
5
100
AcDbSymbolTable
0
LTYPE
5
14
100
AcDbSymbolTableRecord
100
AcDbLinetypeTableRecord
2
BYBLOCK
70
0
0
LTYPE
5
15
100
AcDbSymbolTableRecord
100
AcDbLinetypeTableRecord
2
BYLAYER
70
0
0
ENDTAB
0
TABLE
2
LAYER
5
2
100
AcDbSymbolTable
70
2
0
LAYER
5
50
100
AcDbSymbolTableRecord
100
AcDbLayerTableRecord
2
0
70
0
6
CONTINUOUS
0
ENDTAB
0
TABLE
2
STYLE
5
3
100
AcDbSymbolTable
70
1
0
STYLE
5
11
100
AcDbSymbolTableRecord
100
AcDbTextStyleTableRecord
2
STANDARD
70
0
0
ENDTAB
0
TABLE
2
VIEW
5
6
100
AcDbSymbolTable
70
0
0
ENDTAB
0
TABLE
2
UCS
5
7
100
AcDbSymbolTable
70
0
0
ENDTAB
0
TABLE
2
APPID
5
9
100
AcDbSymbolTable
70
2
0
APPID
5
12
100
AcDbSymbolTableRecord
100
AcDbRegAppTableRecord
2
ACAD
70
0
0
ENDTAB
0
TABLE
2
DIMSTYLE
5
A
100
AcDbSymbolTable
70
1
0
ENDTAB
0
TABLE
2
BLOCK_RECORD
5
1
100
AcDbSymbolTable
70
1
0
BLOCK_RECORD
5
1F
100
AcDbSymbolTableRecord
100
AcDbBlockTableRecord
2
*MODEL_SPACE
0
BLOCK_RECORD
5
1B
100
AcDbSymbolTableRecord
100
AcDbBlockTableRecord
2
*PAPER_SPACE
0
ENDTAB
0
ENDSEC
0
SECTION
2
BLOCKS
0
BLOCK
5
20
100
AcDbEntity
100
AcDbBlockBegin
2
*MODEL_SPACE
0
ENDBLK
5
21
100
AcDbEntity
100
AcDbBlockEnd
0
BLOCK
5
1C
100
AcDbEntity
100
AcDbBlockBegin
2
*PAPER_SPACE
0
ENDBLK
5
1D
100
AcDbEntity
100
AcDbBlockEnd
0
ENDSEC
0
SECTION
2
ENTITIES
0
LWPOLYLINE
5
100
100
AcDbEntity
8
0
100
AcDbPolyline
90
4
70
1
43
0.0
10
-0.95000000000006102
20
1.6849212058050074
10
-0.95000000000006102
20
1.2849212058050612
10
-0.74999999999995326
20
1.2849212058050612
10
-0.74999999999995337
20
1.6849212058050074
0
CIRCLE
5
101
100
AcDbEntity
8
0
100
AcDbCircle
10
-1.0000000000000027
20
0.42499999999999993
30
-4.3709567898628207e-17
40
0.060000000000000039
0
LWPOLYLINE
5
102
100
AcDbEntity
8
0
100
AcDbPolyline
90
4
70
1
43
0.0
10
-1.1999999999998092
20
2.7499999999999911
10
-1.1999999999998092
20
2.5000000000001643
10
-0.7999999999997669
20
2.5000000000001643
10
-0.79999999999976701
20
2.7499999999999911
0
LWPOLYLINE
5
103
100
AcDbEntity
8
0
100
AcDbPolyline
90
36
70
1
43
0.0
10
0
20
0.049999999999999989
10
-1.999999999999996
20
0.049999999999999906
10
-2.0000000000000258
20
1.2500000000000009
10
-1.7500000000000702
20
1.2499999999999687
10
-1.7499999999998843
20
1.9399999999999971
10
-1.5840000000004917
20
1.9399999999999733
10
-1.5840000000004941
20
1.8499999999999872
10
-1.4840000000007323
20
1.8500000000000321
10
-1.4840000000007318
20
1.9250000000000558
10
-1.434000000000158
20
1.9250000000000067
10
-1.4340000000001578
20
2.0749999999999957
10
-1.4840000000007776
20
2.0749999999999944
10
-1.484000000000784
20
2.1499999999999972
10
-1.5840000000004053
20
2.1500000000000181
10
-1.5840000000004424
20
2.0599999999999969
10
-1.7499999999999294
20
2.0600000000000014
10
-1.7499999999998153
20
2.749999999999968
10
-1.9999999999998945
20
2.7499999999999791
10
-1.9999999999998512
20
3.7499999999999818
10
6.382809729837465e-08
20
3.7499999999999467
10
6.3828346326629462e-08
20
2.7499999999999933
10
-0.24999999999996209
20
2.7500000000000044
10
-0.25000000000004857
20
2.0600000000000627
10
-0.41600000000080084
20
2.0600000000000711
10
-0.41600000000072512
20
2.1500000000000683
10
-0.51600000000058044
20
2.1500000000000656
10
-0.51600000000059865
20
2.0750000000000655
10
-0.56600000000056816
20
2.0750000000000686
10
-0.56600000000058326
20
1.9250000000000473
10
-0.51600000000067492
20
1.9250000000000362
10
-0.51600000000062052
20
1.8500000000000361
10
-0.41600000000033455
20
1.8500000000000347
10
-0.41600000000037013
20
1.9400000000000082
10
-0.24999999999997424
20
1.9400000000000013
10
-0.2499999999999902
20
1.2500000000000051
10
-6.6149933976179343e-15
20
1.2500000000000009
0
ENDSEC
0
SECTION
2
OBJECTS
0
DICTIONARY
5
C
100
AcDbDictionary
3
ACAD_GROUP
350
D
3
ACAD_MLINESTYLE
350
17
0
DICTIONARY
5
D
100
AcDbDictionary
0
DICTIONARY
5
1A
330
C
100
AcDbDictionary
0
DICTIONARY
5
17
100
AcDbDictionary
0
ENDSEC
0
EOF
